<svg width="127" height="127" viewBox="0 0 127 127" fill="none" xmlns="http://www.w3.org/2000/svg">
<g clip-path="url(#clip0_1_2)">
<g clip-path="url(#clip1_1_2)">
<path d="M59.3412 0.0341762C59.068 0.0590014 58.199 0.14589 57.4169 0.207953C39.3787 1.83401 22.4826 11.5655 11.7813 26.5228C5.82239 34.8392 2.01114 44.2728 0.571065 54.265C0.0620723 57.753 0 58.7832 0 63.5124C0 68.2416 0.0620723 69.2719 0.571065 72.7599C4.02229 96.6045 20.9929 116.639 44.0093 124.061C48.1309 125.389 52.476 126.296 57.4169 126.842C59.3412 127.053 67.6588 127.053 69.5831 126.842C78.1118 125.898 85.3371 123.788 92.463 120.151C93.5554 119.593 93.7665 119.444 93.6175 119.32C93.5182 119.245 88.8628 113.002 83.2763 105.455L73.1212 91.7388L60.3964 72.9088C53.3946 62.5567 47.6343 54.0912 47.5847 54.0912C47.535 54.0788 47.4853 62.4449 47.4605 72.6606C47.4233 90.5472 47.4109 91.2671 47.1874 91.6891C46.8646 92.2974 46.6163 92.5456 46.0949 92.8187C45.6977 93.0173 45.35 93.0545 43.4755 93.0545H41.3278L40.7567 92.6946C40.3843 92.4587 40.1111 92.1484 39.9249 91.7884L39.6642 91.2299L39.6891 66.3425L39.7263 41.4428L40.1111 40.9587C40.3098 40.698 40.7319 40.3629 41.0298 40.2015C41.5388 39.9532 41.7374 39.9284 43.8851 39.9284C46.4177 39.9284 46.8398 40.0277 47.4978 40.7476C47.684 40.9462 54.574 51.3232 62.8172 63.8227C71.0604 76.3223 82.3327 93.3897 87.8696 101.768L97.9253 116.999L98.4343 116.663C102.941 113.734 107.708 109.563 111.482 105.219C119.514 95.9963 124.691 84.7505 126.429 72.7599C126.938 69.2719 127 68.2416 127 63.5124C127 58.7832 126.938 57.753 126.429 54.265C122.978 30.4203 106.007 10.3863 82.9907 2.96356C78.9312 1.64782 74.6109 0.741697 69.7693 0.195541C68.5775 0.0714141 60.3716 -0.065125 59.3412 0.0341762ZM85.337 38.4389C85.9329 38.7368 86.4171 39.3078 86.5909 39.9036C86.6902 40.2263 86.7151 47.1277 86.6902 62.6808L86.653 84.9987L82.7176 78.9662L78.7698 72.9336V56.7103C78.7698 46.2216 78.8195 40.3256 78.8939 40.0401C79.0926 39.345 79.5271 38.7989 80.123 38.4761C80.632 38.2155 80.8182 38.1906 82.7672 38.1906C84.6046 38.1906 84.9274 38.2155 85.337 38.4389Z" fill="white"/>
</g>
</g>
<defs>
<clipPath id="clip0_1_2">
<rect width="127" height="127" fill="white"/>
</clipPath>
<clipPath id="clip1_1_2">
<rect width="127" height="127" fill="white"/>
</clipPath>
</defs>
</svg>
