<svg width="120" height="120" viewBox="0 0 120 120" fill="none" xmlns="http://www.w3.org/2000/svg">
<g clip-path="url(#clip0_1_15)">
<path d="M105.75 29.5L64.25 6C62.9202 5.37563 61.4691 5.05193 60 5.05193C58.5309 5.05193 57.0798 5.37563 55.75 6L14.25 29.5C12.974 30.2365 11.9114 31.292 11.1663 32.563C10.4213 33.834 10.0194 35.2768 10 36.75V83.25C10.0194 84.7232 10.4213 86.166 11.1663 87.437C11.9114 88.708 12.974 89.7635 14.25 90.5L25.25 96.75C28.1236 98.448 31.4128 99.3136 34.75 99.25C42.5 99.25 47 94.5 47 86.5V40.75C47 40.4185 46.8683 40.1005 46.6339 39.8661C46.3995 39.6317 46.0815 39.5 45.75 39.5H40.5C40.1685 39.5 39.8505 39.6317 39.6161 39.8661C39.3817 40.1005 39.25 40.4185 39.25 40.75V86.5C39.25 90.25 35.5 93.75 29.5 90.75L18 84.25C17.8448 84.1336 17.7187 83.9826 17.632 83.809C17.5452 83.6354 17.5 83.4441 17.5 83.25V36.75C17.5172 36.2881 17.6939 35.8464 18 35.5L59.25 12.25H60.75L102 35.5C102.306 35.8464 102.483 36.2881 102.5 36.75V83.25C102.5 83.4441 102.455 83.6354 102.368 83.809C102.281 83.9826 102.155 84.1336 102 84.25L60.75 107.5C60.522 107.632 60.2633 107.701 60 107.701C59.7367 107.701 59.478 107.632 59.25 107.5L48.75 101.5C48.6125 101.377 48.4345 101.309 48.25 101.309C48.0655 101.309 47.8875 101.377 47.75 101.5L41.5 104.25C40.75 104.5 39.75 104.75 41.75 106L55.75 113.75C57.0128 114.578 58.4899 115.019 60 115.019C61.5101 115.019 62.9872 114.578 64.25 113.75L105.75 90.5C107.026 89.7635 108.089 88.708 108.834 87.437C109.579 86.166 109.981 84.7232 110 83.25V36.75C109.981 35.2768 109.579 33.834 108.834 32.563C108.089 31.292 107.026 30.2365 105.75 29.5Z" fill="white"/>
<path d="M72.75 75.75C61.75 75.75 59.5 73.25 58.5 68C58.5 67.7348 58.3946 67.4804 58.2071 67.2929C58.0196 67.1054 57.7652 67 57.5 67H52C51.7348 67 51.4804 67.1054 51.2929 67.2929C51.1054 67.4804 51 67.7348 51 68C51 74.75 54.75 83 72.75 83C85.75 83 93.25 78 93.25 69.25C93.25 60.5 87.25 58 74.5 56.5C61.75 55 60.5 54 60.5 51C60.5 48 61.5 45.5 71 45.5C80.5 45.5 82.75 47.25 84 52.75C84.0584 53.0366 84.2155 53.2936 84.4439 53.4763C84.6723 53.6591 84.9576 53.7559 85.25 53.75H90.5L91.5 53.25C91.5905 53.1485 91.6593 53.0297 91.7023 52.9008C91.7452 52.7718 91.7615 52.6354 91.75 52.5C91 42.75 84.25 38.25 71 38.25C57.75 38.25 52.25 43.25 52.25 51.25C52.25 59.25 59.25 62.5 70.5 63.75C81.75 65 85.25 66.75 85.25 69.5C85.25 72.25 81.5 75.75 72.75 75.75Z" fill="white"/>
</g>
<defs>
<clipPath id="clip0_1_15">
<rect width="120" height="120" fill="white"/>
</clipPath>
</defs>
</svg>
