<svg width="120" height="120" viewBox="0 0 120 120" fill="none" xmlns="http://www.w3.org/2000/svg">
<path d="M91.6875 37.4725C91.65 38.0537 91.38 38.5675 90.9713 38.9237L90.9675 38.9275C90.4763 39.4637 89.82 39.8387 89.0775 39.97L89.0588 39.9737C88.9538 39.9887 88.83 40 88.7063 40C88.7025 40 88.695 40 88.6913 40C87.5213 40 86.5163 39.2912 86.0888 38.275L86.0813 38.2562C85.9688 37.4275 87.3188 36.8012 88.71 36.6062C90.1013 36.4112 91.575 36.6475 91.6875 37.4725ZM54.525 39.4C54.0713 40.5662 52.9575 41.38 51.6525 41.38C51.6375 41.38 51.6263 41.38 51.6113 41.38H51.615C51.48 41.38 51.3525 41.3687 51.2213 41.3537H51.2363C50.2575 41.1775 49.425 40.6375 48.8738 39.8837L48.8663 39.8725C48.5588 39.52 48.3713 39.0512 48.3713 38.545V38.5412C48.4163 38.2525 48.5775 38.005 48.8025 37.8475L48.8063 37.8437C49.3763 37.5287 50.0588 37.345 50.7863 37.345C51.0975 37.345 51.4013 37.3787 51.6938 37.4425L51.6675 37.4387C53.1488 37.645 54.6788 38.3462 54.5325 39.4H54.525ZM95.8425 68.0612L95.4413 67.5587L95.2763 67.3525C96.99 64.18 97.995 60.4037 97.995 56.3987C97.995 54.5687 97.785 52.7912 97.3875 51.0812L97.4175 51.2387C97.155 49.54 97.0013 47.5787 97.0013 45.5837C97.0013 45.5575 97.0013 45.5312 97.0013 45.505C97.0875 43.6262 97.2863 41.8712 97.5938 40.15L97.5563 40.3975C97.89 38.6575 98.0813 36.655 98.0813 34.6075C98.0813 34.4162 98.0813 34.2287 98.0775 34.0412V34.0712C98.1225 33.8875 98.1488 33.6812 98.1488 33.4637C98.1488 33.3625 98.1413 33.265 98.1338 33.1675V33.1787C96.6338 27.2537 93.8175 22.12 90.0038 17.905L90.03 17.935C86.6138 13.93 82.4138 10.7012 77.655 8.47375L77.43 8.38C80.04 7.82125 83.04 7.5025 86.115 7.5025C86.3963 7.5025 86.6775 7.50625 86.9588 7.51H86.9175C87.0863 7.50625 87.2813 7.5025 87.48 7.5025C96.3975 7.5025 104.34 11.6612 109.478 18.145L109.523 18.205C109.628 18.34 109.733 18.4937 109.823 18.655L109.834 18.6737C113.224 25.0262 108.54 48.0812 95.8388 68.0687L95.8425 68.0612ZM94.77 35.1962C94.71 36.9025 94.53 38.5187 94.245 40.0975L94.275 39.8912C93.9825 41.485 93.7725 43.3825 93.6863 45.31L93.6825 45.4037C93.6825 45.4675 93.6825 45.5387 93.6825 45.6137C93.6825 47.74 93.84 49.8287 94.1475 51.8687L94.1175 51.64C94.4363 53.0537 94.62 54.6737 94.62 56.3425C94.62 59.2037 94.08 61.9412 93.0938 64.45L93.1463 64.3C92.8613 63.8087 92.565 63.2162 92.3063 62.6012L92.265 62.4925C92.0175 61.8962 91.4813 60.9325 90.7425 59.605C87.8588 54.43 81.1013 42.3137 84.5588 37.3712C86.3363 34.8287 90.8438 34.72 94.7663 35.2L94.77 35.1962ZM92.1038 78.64C91.9125 74.7437 93.3638 74.335 94.9013 73.9037C95.1138 73.8462 95.325 73.7825 95.535 73.7125C95.7225 73.8775 95.9288 74.0387 96.1425 74.1812L96.1613 74.1925C98.4863 75.2162 101.194 75.8087 104.044 75.8087C106.264 75.8087 108.398 75.4487 110.393 74.7812L110.25 74.8225C108.96 75.9212 107.49 76.8625 105.9 77.59L105.784 77.6387C103.369 78.6287 100.568 79.2475 97.635 79.3412H97.5975C97.1513 79.4087 96.6375 79.45 96.1163 79.45C94.6688 79.45 93.2888 79.15 92.04 78.61L92.1075 78.6362L92.1038 78.64ZM87.93 86.2375C87.8513 87.0662 87.7613 88 87.6413 89.0312L86.9588 91.0862C86.9063 91.2362 86.8763 91.4087 86.8725 91.5887C86.8763 91.69 86.8763 91.8062 86.8763 91.9225C86.8763 93.2537 86.6775 94.5437 86.31 95.755L86.3325 95.6612C85.8975 97.12 85.5975 98.8112 85.4963 100.555L85.4925 100.615C85.2975 106.93 80.4113 112.041 74.2125 112.592L74.1638 112.596C67.0613 114.119 65.8013 110.267 64.6913 106.87C64.5788 106.515 64.4588 106.161 64.3313 105.809C63.7313 103.364 63.3863 100.555 63.3863 97.6675C63.3863 96.3175 63.4613 94.9862 63.6075 93.6737L63.5925 93.835C63.615 93.355 63.6263 92.7887 63.6263 92.2225C63.6263 88.375 63.0488 84.6625 61.9725 81.1675L62.0438 81.4337C62.0638 80.0587 62.0938 78.6662 62.1338 77.2562C62.1338 77.245 62.1338 77.2262 62.1338 77.2112C62.1338 77.0387 62.1075 76.8737 62.0588 76.7162L62.0625 76.7275C62.01 76.3525 61.9388 76.0225 61.845 75.7037L61.8563 75.7525C61.3275 73.7987 59.9963 72.2237 58.2413 71.3875L58.2 71.3687C57.54 71.0387 56.76 70.8437 55.9313 70.8437C55.5413 70.8437 55.1625 70.885 54.7988 70.9675L54.8325 70.96C55.3125 69.1975 55.8075 67.7575 56.3775 66.355L56.28 66.6287L56.5275 65.965C56.805 65.215 57.1538 64.4387 57.525 63.6175C59.5725 59.4025 60.7688 54.4487 60.7688 49.2137C60.7688 45.6962 60.2288 42.3062 59.2275 39.1187L59.2913 39.355C58.605 35.2 55.035 32.0687 50.7375 32.0687C50.0625 32.0687 49.4025 32.1475 48.7725 32.2937L48.8325 32.2825C45.8475 32.6725 43.1475 33.55 40.6913 34.84L40.8225 34.7762C40.5125 34.9337 40.2063 35.0962 39.9038 35.2637C40.245 27.2125 43.2638 19.9262 48.0825 14.2075L48.0375 14.26C48.48 13.8137 48.945 13.39 49.425 12.9925L49.4588 12.9662C49.7175 12.9137 49.9463 12.8087 50.1413 12.6625L50.1375 12.6662C53.4863 10.2137 57.69 8.74 62.2388 8.74C62.6025 8.74 62.9625 8.7475 63.3188 8.76625L63.27 8.7625C65.2425 8.7925 67.1475 8.9275 69.0225 9.1675L68.7713 9.14125C76.4325 10.615 82.9725 14.6275 87.6413 20.2525L87.6825 20.305C90.4875 23.5637 92.76 27.3812 94.305 31.5475L94.3875 31.8062C93.4238 31.5475 92.3175 31.3975 91.1775 31.3975C87.4913 31.3975 84.1725 32.9575 81.84 35.4512L81.8325 35.4587C77.1825 42.1075 84.3788 55.015 87.8363 61.2175C88.47 62.3537 89.0175 63.3362 89.19 63.7525C90.165 66.0062 91.3913 67.945 92.865 69.6662L92.8388 69.6362C93.165 70.045 93.48 70.4387 93.7238 70.7837C91.845 71.3237 88.47 72.5762 88.7775 78.8312C88.7213 79.5625 88.5788 80.9237 88.3875 82.6487C88.185 83.6575 88.02 84.8875 87.9263 86.1362L87.9188 86.2412L87.93 86.2375ZM53.4225 64.81L53.175 65.47C52.6613 66.7 52.1288 68.2637 51.6863 69.865L51.615 70.1687C48.2663 70.12 45.2588 68.6875 43.1363 66.415L43.1288 66.4075C40.7588 63.9062 39.3038 60.52 39.3038 56.7925C39.3038 56.05 39.36 55.3225 39.4725 54.61L39.4613 54.6887C39.825 51.9887 40.035 48.8725 40.035 45.7037C40.035 43.8212 39.96 41.9575 39.8175 40.1125L39.8325 40.3562C39.81 39.955 39.7875 39.6025 39.7763 39.325C42.795 37.0337 46.6163 35.65 50.76 35.65C51.255 35.65 51.7425 35.6687 52.2263 35.7062L52.1625 35.7025C54.24 36.1862 55.8038 37.9075 56.0513 40.0262L56.055 40.0487C56.9475 42.7787 57.4613 45.9212 57.4613 49.18C57.4613 53.9275 56.37 58.42 54.4275 62.425L54.5063 62.245C54.1125 63.1187 53.7413 63.9437 53.4225 64.8025V64.81ZM43.6088 83.5C42.84 83.305 42.165 83.02 41.55 82.6487L41.5838 82.6675C42.2288 82.3937 42.99 82.165 43.7775 82.0187L43.8488 82.0075C49.8638 80.77 50.79 79.8962 52.8188 77.32C53.2838 76.7312 53.8088 76.06 54.54 75.2462C54.69 75.0775 54.81 74.875 54.8813 74.65L54.885 74.6387C55.6838 73.93 56.16 74.125 56.9325 74.4437C57.7838 74.9125 58.4138 75.7037 58.6575 76.645L58.6613 76.6712C58.7475 76.915 58.8 77.1925 58.8 77.485C58.8 77.9537 58.6688 78.3925 58.4438 78.7637L58.4513 78.7525C56.0325 82.06 52.1663 84.1862 47.805 84.1862C46.305 84.1862 44.8613 83.935 43.515 83.47L43.6088 83.5ZM15.4575 59.6612C13.0162 52.2175 11.0288 43.3862 9.855 34.2962L9.77625 33.55C9.5475 32.3425 9.42 30.9512 9.42 29.5337C9.42 22.7612 12.3787 16.6825 17.0737 12.52L17.0962 12.5012C25.7025 6.415 39.7763 9.96625 45.72 11.89L45.675 11.935C39.9188 18.955 36.4275 28.03 36.4275 37.915C36.4275 38.2525 36.4313 38.59 36.4388 38.9275V38.8787C36.4388 39.265 36.4688 39.8125 36.5138 40.5625C36.6375 42.1 36.7088 43.8925 36.7088 45.7037C36.7088 48.7112 36.5138 51.6737 36.1313 54.58L36.1688 54.2387C36.045 55.0112 35.9775 55.9037 35.9775 56.8112C35.9775 61.4275 37.785 65.6237 40.7363 68.725L40.7288 68.7175C41.1063 69.1125 41.5 69.4837 41.91 69.8312C40.2863 71.5712 36.7538 75.4187 32.9963 79.9412C30.3375 83.14 28.5 82.525 27.8963 82.3262C25.3275 80.9462 23.3137 78.805 22.1287 76.21L22.095 76.1275C19.53 71.4325 17.2725 65.9725 15.6075 60.2575L15.4612 59.6687L15.4575 59.6612ZM114.75 73C114.679 72.7862 114.589 72.6025 114.48 72.4337L114.488 72.445C113.835 71.2112 112.253 70.8437 109.766 71.3575C102.019 72.955 99.0188 71.9725 97.9313 71.2675C103.995 62.0725 108.874 51.4225 111.998 40.045L112.181 39.2612C113.453 34.3375 115.92 22.75 112.755 17.0875C112.534 16.6675 112.298 16.3075 112.035 15.97L112.046 15.985C106.185 8.65375 97.2413 4 87.21 4C86.925 4 86.64 4.00375 86.3588 4.01125H86.4C86.2425 4.0075 86.0588 4.0075 85.8713 4.0075C80.8388 4.0075 75.9975 4.8325 71.4788 6.35125L71.7975 6.2575C70.995 6.1075 70.1888 5.98 69.3788 5.875C67.5488 5.52625 65.43 5.30875 63.2625 5.275H63.2325C62.9213 5.26 62.5575 5.2525 62.19 5.2525C57.2588 5.2525 52.6725 6.73 48.8513 9.26875L48.9413 9.2125C44.925 7.70875 26.5013 1.5025 15.0975 9.58C9.51375 14.3425 6 21.3813 6 29.245C6 30.7637 6.13125 32.2525 6.3825 33.7L6.36 33.5462C7.61625 43.6637 9.65625 52.7687 12.48 61.525L12.1838 60.46C14.0325 66.895 16.32 72.4637 19.1288 77.71L18.9 77.245C20.5238 80.935 23.3325 83.86 26.835 85.5887L26.9325 85.6337C27.5625 85.8175 28.2863 85.9262 29.0363 85.9262C31.8188 85.9262 34.2563 84.46 35.6213 82.255L35.64 82.2212C39.3938 77.7062 43.0913 73.6637 44.7525 71.8787C46.635 72.925 48.8663 73.57 51.2438 73.645H51.2663L51.27 73.6637C50.875 74.1337 50.4888 74.6112 50.1113 75.0962C48.5213 77.1137 48.1913 77.53 43.08 78.5837C41.625 78.8837 37.7625 79.6787 37.7063 82.3862C37.7063 82.4012 37.7063 82.4162 37.7063 82.435C37.7063 82.9862 37.8675 83.5 38.145 83.9312L38.1375 83.92C39.3075 85.4012 40.9538 86.4625 42.84 86.875L42.8963 86.8862C44.3925 87.3737 46.1175 87.655 47.9025 87.655C52.0275 87.655 55.8 86.1625 58.7175 83.6875L58.695 83.7062C58.605 85.2737 58.5563 87.1112 58.5563 88.96C58.5563 95.5337 59.1975 101.961 60.4163 108.179L60.315 107.552C61.7475 112.701 66.375 116.429 71.88 116.477H71.8875C73.2713 116.466 74.61 116.305 75.9 116.012L75.7763 116.035C82.9725 115.394 88.6425 109.641 89.1525 102.464L89.1563 102.419C89.8613 98.3387 91.0388 88.945 91.68 83.2C91.71 82.9562 91.8075 82.7387 91.95 82.5587L91.9463 82.5625C91.95 82.5587 92.2725 82.3412 93.9488 82.705L94.155 82.7387L95.3438 82.8437L95.415 82.8475C95.7713 82.8625 96.1913 82.8737 96.6113 82.8737C100.451 82.8737 104.119 82.1237 107.468 80.7587L107.276 80.8262C110.295 79.4275 115.736 75.9887 114.75 73Z" fill="white"/>
</svg>
