<svg width="127" height="127" viewBox="0 0 127 127" fill="none" xmlns="http://www.w3.org/2000/svg">
<path d="M31.75 50.3333C35.9833 33.4444 46.5667 25 63.5 25C88.9 25 92.075 44 104.775 47.1667C113.242 49.2778 120.65 46.1111 127 37.6667C122.767 54.5556 112.183 63 95.25 63C69.85 63 66.675 44 53.975 40.8333C45.5083 38.7222 38.1 41.8889 31.75 50.3333ZM0 88.3333C4.23333 71.4444 14.8167 63 31.75 63C57.15 63 60.325 82 73.025 85.1667C81.4917 87.2778 88.9 84.1111 95.25 75.6667C91.0167 92.5556 80.4333 101 63.5 101C38.1 101 34.925 82 22.225 78.8333C13.7583 76.7222 6.35 79.8889 0 88.3333Z" fill="white"/>
</svg>
