<svg width="127" height="127" viewBox="0 0 127 127" fill="none" xmlns="http://www.w3.org/2000/svg">
<path fill-rule="evenodd" clip-rule="evenodd" d="M127 0H0V127H127V0ZM51.4511 110.067H40.8389V68.1093H25.6233V59.3598H66.6665V68.1093H51.4511V110.067ZM112.516 94.9562C112.516 105.006 104.715 111.367 92.0648 111.367C79.9414 111.367 72.2808 105.569 71.6839 96.5725L71.6483 96.0103H81.8744L81.9091 96.3617C82.296 100.157 86.4074 102.723 92.3459 102.723C98.0034 102.723 101.904 100.017 101.904 96.1161V96.0806C101.904 92.743 99.4088 90.8804 93.1189 89.5799L87.7773 88.4911C77.2355 86.3473 72.7024 81.4273 72.7024 73.732V73.6964C72.7024 64.2789 80.7847 58.0593 92.0293 58.0593C103.872 58.0593 110.83 64.3145 111.497 72.7829L111.532 73.2401H101.553L101.482 72.8184C100.885 69.1989 97.3709 66.6691 92.0293 66.6691C86.7935 66.7038 83.3145 69.0931 83.3145 72.8887V72.9234C83.3145 76.2271 85.7749 78.1947 91.7482 79.425L97.1245 80.5138C107.842 82.7278 112.516 87.0145 112.516 94.9215V94.9562Z" fill="white"/>
</svg>
